<svg width="30" height="31" viewBox="0 0 30 31" fill="none" xmlns="http://www.w3.org/2000/svg">
<path d="M1.875 2.21338H4.80041C5.35867 2.21339 5.90013 2.39666 6.33489 2.73277C6.76964 3.06888 7.07154 3.53761 7.19045 4.06112L7.98155 7.52147M7.98155 7.52147L9.33073 14.6842C9.63218 16.3102 10.5193 17.7828 11.8371 18.8449C13.1548 19.9069 14.8195 20.4909 16.5403 20.4946H19.8409C21.506 20.4912 23.1204 19.9444 24.4188 18.9439C25.7173 17.9435 26.6226 16.5489 26.986 14.9893L28.2347 9.68462C28.2964 9.42642 28.2968 9.15821 28.2358 8.89986C28.1748 8.64151 28.0541 8.39963 27.8825 8.19212C27.711 7.98462 27.493 7.81681 27.2447 7.70112C26.9964 7.58542 26.7242 7.52481 26.4482 7.52376L7.98155 7.52147Z" stroke="#6E7191" stroke-width="2" stroke-linecap="round"/>
<path d="M11.0157 28.4634C11.5766 28.4634 12.0313 28.0087 12.0313 27.4478C12.0313 26.8868 11.5766 26.4321 11.0157 26.4321C10.4548 26.4321 10.0001 26.8868 10.0001 27.4478C10.0001 28.0087 10.4548 28.4634 11.0157 28.4634Z" stroke="#6E7191" stroke-width="2"/>
<path d="M25.2343 28.4634C25.7952 28.4634 26.2499 28.0087 26.2499 27.4478C26.2499 26.8868 25.7952 26.4321 25.2343 26.4321C24.6734 26.4321 24.2187 26.8868 24.2187 27.4478C24.2187 28.0087 24.6734 28.4634 25.2343 28.4634Z" stroke="#6E7191" stroke-width="2"/>
</svg>
