<svg width="25" height="28" viewBox="0 0 25 28" fill="none" xmlns="http://www.w3.org/2000/svg">
<path d="M14.0602 19.9632L22.3635 25.5328C22.4661 25.6016 22.5862 25.642 22.7108 25.6496C22.8354 25.6571 22.9598 25.6316 23.0705 25.5757C23.1812 25.5199 23.2739 25.4358 23.3386 25.3326C23.4033 25.2295 23.4375 25.1112 23.4375 24.9906V7.30726C23.4375 5.90655 22.8613 4.56321 21.8357 3.57276C20.81 2.58231 19.4189 2.02588 17.9684 2.02588H7.03156C5.58107 2.02588 4.19 2.58231 3.16435 3.57276C2.1387 4.56321 1.5625 5.90655 1.5625 7.30726V24.9894C1.56251 25.11 1.59672 25.2283 1.66141 25.3315C1.72611 25.4346 1.81882 25.5187 1.92949 25.5746C2.04016 25.6304 2.16457 25.656 2.2892 25.6484C2.41384 25.6408 2.53394 25.6004 2.63649 25.5316L10.941 19.962C11.399 19.6551 11.9433 19.4907 12.5008 19.4909C13.0583 19.4911 13.6025 19.6559 14.0602 19.9632V19.9632Z" stroke="#6E7191" stroke-width="2" stroke-linecap="round" stroke-linejoin="round"/>
</svg>
