<svg width="20" height="21" viewBox="0 0 20 21" fill="none" xmlns="http://www.w3.org/2000/svg">
<path d="M9.14625 17.3709C10.706 17.3709 12.2307 16.9084 13.5276 16.0418C14.8245 15.1753 15.8353 13.9436 16.4322 12.5026C17.0291 11.0616 17.1853 9.47589 16.881 7.94611C16.5767 6.41633 15.8256 5.01113 14.7227 3.90822C13.6198 2.80531 12.2146 2.05422 10.6848 1.74992C9.155 1.44563 7.56934 1.60181 6.12831 2.1987C4.68729 2.79559 3.45562 3.80639 2.58907 5.10328C1.72252 6.40016 1.26 7.92489 1.26 9.48464C1.26 11.5762 2.09087 13.5821 3.56983 15.0611C5.04879 16.54 7.05468 17.3709 9.14625 17.3709V17.3709Z" stroke="#A0A3BC" stroke-width="2" stroke-linecap="round" stroke-linejoin="round"/>
<path d="M18.7863 19.1246L14.8138 15.1521" stroke="#A0A3BC" stroke-width="2" stroke-linecap="round" stroke-linejoin="round"/>
</svg>
