<svg width="27" height="28" viewBox="0 0 27 28" fill="none" xmlns="http://www.w3.org/2000/svg">
<path d="M22.6232 18.4288C19.9266 16.8344 16.7682 15.9164 13.5007 15.7771C10.2331 15.9164 7.07478 16.8344 4.37812 18.4288C3.69063 18.8746 3.12669 19.4463 2.72701 20.1025C2.32732 20.7587 2.10186 21.4831 2.06688 22.2233L1.6875 25.6509H25.3125L24.9345 22.2233C24.8994 21.4831 24.6739 20.7587 24.2742 20.1025C23.8745 19.4464 23.3106 18.8747 22.6232 18.4288V18.4288Z" stroke="#6E7191" stroke-width="2" stroke-linecap="round" stroke-linejoin="round"/>
<path d="M13.5 12.1509C14.5013 12.1509 15.48 11.854 16.3126 11.2977C17.1451 10.7414 17.794 9.95077 18.1771 9.02571C18.5603 8.10066 18.6606 7.08276 18.4652 6.10074C18.2699 5.11871 17.7877 4.21666 17.0797 3.50865C16.3717 2.80065 15.4697 2.31849 14.4876 2.12316C13.5056 1.92782 12.4877 2.02807 11.5627 2.41124C10.6376 2.79441 9.84696 3.44328 9.29068 4.27581C8.73441 5.10833 8.4375 6.08711 8.4375 7.08838C8.4375 8.43104 8.97087 9.7187 9.92027 10.6681C10.8697 11.6175 12.1573 12.1509 13.5 12.1509V12.1509Z" stroke="#6E7191" stroke-width="2" stroke-linecap="round" stroke-linejoin="round"/>
</svg>
