<svg width="29" height="28" viewBox="0 0 29 28" fill="none" xmlns="http://www.w3.org/2000/svg">
<path d="M2.25 1.75H4.98038C5.50142 1.75001 6.00679 1.92106 6.41256 2.23477C6.81833 2.54847 7.10011 2.98595 7.21108 3.47456L7.94945 6.70422M7.94945 6.70422L9.20868 13.3894C9.49003 14.907 10.318 16.2815 11.5479 17.2727C12.7779 18.264 14.3316 18.809 15.9376 18.8125H19.0182C20.5723 18.8093 22.079 18.299 23.2909 17.3652C24.5028 16.4314 25.3477 15.1298 25.6869 13.6742L26.8524 8.72316C26.91 8.48217 26.9103 8.23184 26.8534 7.99071C26.7965 7.74959 26.6838 7.52383 26.5237 7.33016C26.3636 7.13649 26.1601 6.97987 25.9284 6.87189C25.6966 6.76391 25.4426 6.70733 25.185 6.70636L7.94945 6.70422Z" stroke="#EDEDF4" stroke-width="2" stroke-linecap="round"/>
<path d="M10.7813 26.25C11.3048 26.25 11.7292 25.8256 11.7292 25.302C11.7292 24.7785 11.3048 24.3541 10.7813 24.3541C10.2578 24.3541 9.83337 24.7785 9.83337 25.302C9.83337 25.8256 10.2578 26.25 10.7813 26.25Z" stroke="#EDEDF4" stroke-width="2"/>
<path d="M24.052 26.25C24.5756 26.25 25 25.8256 25 25.302C25 24.7785 24.5756 24.3541 24.052 24.3541C23.5285 24.3541 23.1041 24.7785 23.1041 25.302C23.1041 25.8256 23.5285 26.25 24.052 26.25Z" stroke="#EDEDF4" stroke-width="2"/>
</svg>
