<svg width="24" height="24" viewBox="0 0 24 24" fill="none" xmlns="http://www.w3.org/2000/svg">
<path d="M1.687 1.687C0 3.374 0 6.08952 0 11.52V12.48C0 17.9105 0 20.626 1.687 22.313C3.374 24 6.08952 24 11.52 24H12.48C17.9105 24 20.626 24 22.313 22.313C24 20.626 24 17.9105 24 12.48V11.52C24 6.08952 24 3.374 22.313 1.687C20.626 0 17.9105 0 12.48 0H11.52C6.08952 0 3.374 0 1.687 1.687ZM4.05 7.30002H6.79002C6.88002 11.88 8.89998 13.82 10.5 14.22V7.30002H13.08V11.25C14.66 11.08 16.32 9.28002 16.88 7.30002H19.46C19.2489 8.32687 18.8282 9.29909 18.2243 10.156C17.6203 11.0129 16.8461 11.7359 15.95 12.28C16.9505 12.7767 17.8343 13.4802 18.5428 14.3438C19.2513 15.2075 19.7684 16.2117 20.06 17.29H17.22C16.9583 16.3533 16.4257 15.5148 15.6892 14.8797C14.9527 14.2446 14.045 13.8411 13.08 13.72V17.29H12.77C7.30002 17.29 4.18 13.54 4.05 7.30002Z" fill="#6E7191"/>
</svg>
